<?xml version="1.0" encoding="UTF-8" standalone="no"?>
<!-- Created with Inkscape (http://www.inkscape.org/) -->

<svg
   xmlns:dc="http://purl.org/dc/elements/1.1/"
   xmlns:cc="http://creativecommons.org/ns#"
   xmlns:rdf="http://www.w3.org/1999/02/22-rdf-syntax-ns#"
   xmlns:svg="http://www.w3.org/2000/svg"
   xmlns="http://www.w3.org/2000/svg"
   xmlns:sodipodi="http://sodipodi.sourceforge.net/DTD/sodipodi-0.dtd"
   xmlns:inkscape="http://www.inkscape.org/namespaces/inkscape"
   version="1.1"
   id="svg2"
   width="533.33331"
   height="266.66666"
   viewBox="0 0 533.33331 266.66666"
   sodipodi:docname="iman_logo.svg"
   inkscape:version="0.92.5 (2060ec1f9f, 2020-04-08)">
  <metadata
     id="metadata8">
    <rdf:RDF>
      <cc:Work
         rdf:about="">
        <dc:format>image/svg+xml</dc:format>
        <dc:type
           rdf:resource="http://purl.org/dc/dcmitype/StillImage" />
        <dc:title></dc:title>
      </cc:Work>
    </rdf:RDF>
  </metadata>
  <defs
     id="defs6" />
  <sodipodi:namedview
     pagecolor="#ffffff"
     bordercolor="#666666"
     borderopacity="1"
     objecttolerance="10"
     gridtolerance="10"
     guidetolerance="10"
     inkscape:pageopacity="0"
     inkscape:pageshadow="2"
     inkscape:window-width="1920"
     inkscape:window-height="1016"
     id="namedview4"
     showgrid="false"
     inkscape:zoom="1.275"
     inkscape:cx="404.27772"
     inkscape:cy="72.839258"
     inkscape:window-x="1080"
     inkscape:window-y="31"
     inkscape:window-maximized="1"
     inkscape:current-layer="svg2" />
  <path
     style="fill:#000000;stroke-width:1.33333325"
     d="m 85.03524,233.68866 c 3.136051,-0.28165 7.936051,-0.27769 10.666666,0.009 2.730616,0.2865 0.164756,0.51695 -5.70191,0.51211 -5.866666,-0.005 -8.100806,-0.23925 -4.964756,-0.52092 z m 3.799219,-36.82778 C 74.993413,182.45406 63.126263,170.66666 62.463012,170.66666 c -0.663251,0 -2.767187,3.6 -4.675413,8 -1.908225,4.4 -4.012184,8 -4.675463,8 -0.714325,0 -0.709257,-0.95124 0.0124,-2.33333 3.742284,-7.16677 28.208794,-64.43505 28.208794,-66.0277 0,-1.73996 -26.749984,-27.638966 -28.54712,-27.638966 -0.432416,0 -0.786212,12.899996 -0.786212,28.666666 0,18.22223 -0.485788,28.66667 -1.333334,28.66667 -0.85936,0 -1.333333,-14.26758 -1.333333,-40.13605 V 67.727896 l 18.999999,17.802717 19,17.802717 0.356081,-35.312462 c 0.195845,-19.421855 0.07934,-36.033638 -0.258899,-36.915074 -0.338238,-0.881437 -2.898474,-1.839967 -5.689414,-2.130065 -2.790939,-0.2901 0.625565,-0.523492 7.592231,-0.51865 6.966667,0.0048 10.116667,0.23848 7,0.519194 l -5.666666,0.510388 v 36.034445 c 0,22.738316 0.478034,35.870454 1.295545,35.590004 0.712549,-0.24445 7.162549,-5.888791 14.333332,-12.542992 7.17078,-6.6542 15.28779,-14.066356 18.03779,-16.471456 l 5,-4.372909 v 40.138117 c 0,25.86986 -0.47397,40.13813 -1.33334,40.13813 -0.84754,0 -1.33333,-10.44444 -1.33333,-28.66667 0,-15.76667 -0.38778,-28.666666 -0.86173,-28.666666 -0.84647,0 -6.82893,5.316922 -22.23696,19.763146 l -7.765361,7.28062 14.850921,33.94811 c 8.168,18.67147 14.51118,34.28786 14.09595,34.70308 -0.41523,0.41523 -2.35197,-2.94626 -4.30386,-7.47 -1.95189,-4.52372 -4.03797,-8.22496 -4.63574,-8.22496 -0.59776,0 -1.24953,11.7874 -1.44837,26.19422 L 114,223.0551 Z m 24.498871,-6.19422 v -28 H 88.822171 c -23.349581,0 -24.544042,0.12574 -25.205088,2.6536 -0.539242,2.06207 4.806455,8.30378 23.980505,28 13.570942,13.94052 24.913232,25.3464 25.205092,25.3464 0.29186,0 0.53065,-12.6 0.53065,-28 z m -2.66667,-32.21814 C 110.66666,156.08832 94.513271,120 93.456829,120 c -0.507925,0 -1.658476,0.73497 -2.556778,1.63328 -1.283126,1.28312 -2.189335,1.28601 -4.226975,0.0135 -2.162121,-1.35027 -2.805056,-1.22486 -3.863938,0.75368 -1.690375,3.15849 -16.142474,36.31647 -16.142474,37.03625 0,0.30982 9.899999,0.5633 21.999999,0.5633 15.840037,0 21.999997,-0.43442 21.999997,-1.55148 z M 91.576175,118.55715 c 1.034904,-1.0349 1.027652,-2.54281 -0.02565,-5.33333 -1.809002,-4.7926 -2.677194,-4.8678 -4.70925,-0.40793 -1.199189,2.63194 -1.211588,3.93463 -0.05076,5.33334 1.848942,2.22784 2.878026,2.31556 4.785661,0.40792 z m -6.140039,-8.13868 1.759662,-4.2482 L 70.597897,90.445247 C 61.469052,81.796485 53.549998,74.708174 52.999998,74.693445 c -0.55,-0.01473 -1.007436,2.52322 -1.016524,5.639886 -0.01601,5.493247 0.443036,6.10337 14.999999,19.936339 8.259088,7.84832 15.393731,14.29832 15.854763,14.33333 0.461031,0.035 1.630087,-1.84803 2.5979,-4.18453 z M 115.66666,95.871312 c 10.27121,-9.683182 11,-10.729158 11,-15.787449 0,-2.979458 -0.38049,-5.417198 -0.84554,-5.417198 -0.46505,0 -6.5522,5.25 -13.527,11.666666 -6.9748,6.416667 -14.775808,13.488844 -17.335581,15.715949 l -4.654131,4.04929 2.253799,4.35836 2.253797,4.35837 4.927329,-4.28687 c 2.710027,-2.35778 9.877327,-8.95348 15.927327,-14.657118 z m 49.66667,89.462018 V 148 h 20.66666 20.66667 v 3.33333 3.33333 h -16 -16 V 168 181.33333 h 13.33333 13.33333 V 184.66666 188 h -13.33333 -13.33333 v 17.33333 17.33333 h -4.66667 -4.66666 z m 65.99999,35.11306 c -6.39598,-3.37946 -8.8408,-6.01244 -12.17596,-13.11306 -3.93786,-8.38381 -4.20526,-20.27683 -0.62956,-28 8.08092,-17.45396 29.62666,-21.95559 43.13886,-9.01315 l 3.66666,3.51206 v -4.91612 c 0,-4.72954 0.17712,-4.91612 4.66667,-4.91612 h 4.66666 v 29.33333 29.33333 h -4.66666 c -4.59655,0 -4.66667,-0.0845 -4.66667,-5.63001 0,-5.49022 -0.0519,-5.55598 -2.0881,-2.64882 -5.30095,7.56816 -22.77583,10.88583 -31.9119,6.05856 z m 26.7751,-9.86349 c 5.21133,-4.86868 7.2249,-9.69439 7.2249,-17.31518 0,-12.92044 -6.90785,-21.21886 -18.50368,-22.22852 -4.35996,-0.37964 -7.52825,0.21061 -10.82965,2.01756 -11.79588,6.45617 -14.42887,25.80428 -4.91119,36.08905 4.21759,4.5575 7.30236,5.5457 15.89292,5.09126 5.91206,-0.31274 8.43806,-1.14232 11.1267,-3.65417 z m 47.2249,11.21433 c -4.5636,-1.50348 -7.92129,-3.63386 -8.90708,-5.65136 -0.57668,-1.18024 -1.35851,-11.74588 -1.73739,-23.47921 l -0.68886,-21.33333 -3.66667,-0.42189 c -2.87996,-0.33138 -3.66667,-1.1181 -3.66667,-3.66667 0,-2.71641 0.65134,-3.24477 4,-3.24477 3.9596,0 4,-0.0741 4,-7.33334 v -7.33333 h 4.66667 4.66667 V 156.66666 164 h 7.33333 c 6.93333,0 7.33333,0.18181 7.33333,3.33333 0,3.15152 -0.4,3.33333 -7.33333,3.33333 h -7.33333 v 20.61976 c 0,23.08337 0.12586,23.38024 9.91234,23.38024 4.3937,0 4.75432,0.30341 4.75432,4 0,3.83351 -0.23586,3.99561 -5.66666,3.89473 -3.11667,-0.0579 -6.56667,-0.40176 -7.66667,-0.76416 z m 36.28343,-1.13938 c -6.90463,-2.99992 -8.28343,-8.09588 -8.28343,-30.61503 v -19.37616 h -3.33333 c -2.66667,0 -3.33334,-0.66666 -3.33334,-3.33333 0,-2.66667 0.66667,-3.33333 3.33334,-3.33333 3.15152,0 3.33333,-0.4 3.33333,-7.33334 v -7.33333 h 4.66667 4.66666 V 156.66666 164 h 8 c 7.60099,0 8,0.16293 8,3.2668 0,3.0417 -0.52823,3.29434 -7.66667,3.66666 l -7.66666,0.39987 -0.37108,19.18664 c -0.43485,22.4837 0.24773,24.14669 9.91106,24.14669 5.54816,0 5.79335,0.16928 5.79335,4 0,3.89036 -0.17359,3.99857 -6.33333,3.94781 -3.48334,-0.0287 -8.30579,-0.90918 -10.71657,-1.95662 z m 42.38323,0.5145 c -11.65074,-4.63213 -18.98022,-20.81672 -15.97749,-35.28074 4.48629,-21.61037 28.669,-30.4058 44.75852,-16.27901 l 4.55231,3.99697 v -4.80479 c 0,-4.60229 0.19666,-4.80478 4.66666,-4.80478 h 4.66667 v 29.33333 29.33333 h -4.66667 c -4.59192,0 -4.66666,-0.0896 -4.66666,-5.59489 v -5.59488 l -4.33334,4.10156 c -2.38333,2.25585 -5.64389,4.77356 -7.24568,5.59489 -3.54965,1.82011 -17.17545,1.81949 -21.75432,-9.9e-4 z m 23.75738,-9.2129 c 9.14581,-5.57602 12.42802,-23.00977 5.97288,-31.72544 -9.67678,-13.06547 -26.33143,-12.55549 -34.27722,1.04957 -5.51182,9.43756 -2.264,25.13096 6.34198,30.64428 5.66852,3.63147 16.03336,3.64637 21.96236,0.0316 z m 36.24262,-29.29279 v -40 h 4.66667 4.66666 v 14.20666 c 0,13.55654 0.10894,14.108 2.38214,12.05085 11.2122,-10.14691 30.80592,-7.15583 37.28453,5.69168 2.73322,5.42015 3,7.82113 3,27 v 21.05081 h -4.66667 -4.66666 v -20.06621 c 0,-22.27309 -1.0868,-26.35883 -7.95636,-29.91121 -8.29395,-4.28898 -19.54646,-1.42999 -23.3544,5.93378 -1.54503,2.98774 -2.02258,8.64908 -2.02258,23.97743 v 20.06621 h -4.66666 -4.66667 z M 317.6152,131.82829 c -9.60421,-2.76978 -18.94855,-17.15061 -18.94855,-29.16163 0,-7.306169 3.88722,-16.682161 8.95958,-21.610538 6.11408,-5.940536 10.5082,-7.722791 19.04042,-7.722791 8.26726,0 12.90376,1.772834 18.33333,7.010002 l 4.33334,4.179777 v -5.594889 c 0,-5.505271 0.0747,-5.59489 4.66666,-5.59489 h 4.66667 V 102.66666 132 h -4.66667 c -4.46646,0 -4.66666,-0.20529 -4.66666,-4.7852 v -4.78519 l -4.33334,3.65391 c -8.20782,6.92093 -16.94843,8.75453 -27.38478,5.74477 z m 21.06501,-9.49496 c 6.51565,-4.43452 9.276,-8.90288 10.17169,-16.46565 1.65564,-13.97932 -6.90287,-24.519229 -19.91813,-24.529365 -12.61429,-0.0099 -20.22268,8.016388 -20.22268,21.333235 0,17.57441 16.82115,28.61021 29.96912,19.66178 z M 165.33333,94.666664 V 57.333332 h 4.66666 4.66667 V 94.666664 132 h -4.66667 -4.66666 z m 26.66666,7.999996 V 73.333331 h 4.66667 c 4.35324,0 4.66666,0.284258 4.66666,4.232419 v 4.232419 l 3,-2.732468 c 4.87347,-4.438858 8.41862,-5.73237 15.71084,-5.73237 8.30307,0 15.02906,2.953474 18.80628,8.258104 l 2.79794,3.929339 2.35173,-3.867101 c 7.44951,-12.24974 31.96818,-10.783545 38.6486,2.311152 2.36029,4.626558 2.68461,7.845877 2.68461,26.648725 V 132 h -4 -4 v -17.97302 c 0,-26.413025 -3.31677,-32.693649 -17.26538,-32.693649 -5.43379,0 -7.47235,0.696751 -10.83858,3.704475 -5.20409,4.64986 -6.42769,10.53694 -6.50464,31.295524 L 242.66666,132 h -4 -4 v -17.16667 c 0,-21.133407 -0.66315,-24.624688 -5.61859,-29.580127 -3.37105,-3.371044 -4.92932,-3.919872 -11.12961,-3.919872 -6.07986,0 -7.89212,0.609215 -11.5641,3.887412 l -4.35437,3.887413 -0.42508,21.445924 L 201.14983,132 h -4.57492 -4.57492 z m 183.99999,-0.0845 V 73.164373 l 4.32751,0.417812 c 3.60203,0.347768 4.44024,1.067444 5,4.292924 0.61821,3.562334 0.82608,3.689762 2.57539,1.57875 3.37634,-4.074494 9.11512,-6.120528 17.16705,-6.120528 9.80493,0 15.66444,3.516268 19.93005,11.959948 2.72133,5.386813 3,7.831879 3,26.322571 V 132 h -4.66667 -4.66666 v -19.39955 c 0,-20.716892 -1.02911,-25.035014 -6.95572,-29.18618 -1.77837,-1.245615 -5.78716,-2.080939 -9.98659,-2.080939 -5.86542,0 -7.7295,0.63733 -11.36998,3.887412 L 385.99998,89.108156 385.5749,110.55408 385.14982,132 h -4.57492 -4.57492 v -29.41781 z"
     id="path817"
     inkscape:connector-curvature="0" />
</svg>
